<?xml version="1.0" encoding="UTF-8"?>
<svg id="Camada_2" data-name="Camada 2" xmlns="http://www.w3.org/2000/svg" viewBox="0 0 970.21 970.16">
  <defs>
    <style>
      .cls-1 {
        fill: #ffe7d2;
      }
    </style>
  </defs>
  <g id="Camada_1-2" data-name="Camada 1">
    <g>
      <path class="cls-1" d="M468.66,146.24c-2.31-12.31,3.22-38.7-.33-49.05-.74-2.17-18.02-10.63-23.52-18.79-29.09-43.21,16.17-95.75,62.76-72.84,30.63,15.06,35.03,61.96,8.42,82.23-3.89,2.96-13.55,5.82-14.78,9.4-3.56,10.35,1.98,36.74-.33,49.05,78.22,3.51,152.55,34.99,210.86,86.46l106.6-104.66c1.91-3.88-5.11-12.54-6.7-17.52-31.79-99.57,98.8-149.58,145-72.47,44.39,74.07-37.13,156.91-110.57,112.47l-2.61.61-106.79,106.92c52.32,56.32,84.7,133.28,86.59,210.56l51.14.11c15.61-45.03,81.28-43.4,93.82,3.02,16.26,60.2-71.74,87.94-93.82,28.98l-51.14.11c-1.6,77.94-35.55,152.9-86.46,210.86l104.68,106.56c12.42-1.03,21.64-8.95,35.75-10.59,89.17-10.35,126.46,108.67,52.16,150.89-74.71,42.44-154.24-40.2-110.4-112.53l-.61-2.61-106.92-106.79c-56.52,52.34-133.17,84.71-210.56,86.6l-.11,51.14c44.82,16.3,43.54,81.24-3.02,93.82-60.4,16.32-87.93-72.5-28.98-93.82l-.11-51.14c-77.91-1.68-153.02-35.46-210.86-86.46l-106.6,104.66c-1.91,3.88,5.11,12.54,6.7,17.52,31.37,98.25-96.05,149.63-144.29,73.77-38.98-61.3,10.99-134.85,82.77-125.08,11.95,1.63,21.08,9.02,31.69,10.67l104.66-106.6c-51.47-58.3-82.96-132.64-86.46-210.86-12.31,2.31-38.7-3.22-49.05.33-3.58,1.23-6.43,10.89-9.4,14.78-20.64,27.09-68.59,21.93-82.95-9.72-21.25-46.81,31.24-89.95,73.55-61.46,8.16,5.5,16.63,22.77,18.79,23.52,10.35,3.56,36.74-1.98,49.05.33,3.17-79.34,36.19-152.14,86.49-212.3l-104.69-105.16c-10.61,1.64-19.75,9.04-31.69,10.67C25.07,171.54-24.14,100.1,12.91,38.05,59.07-39.27,189.73,10.87,157.91,110.52c-1.59,4.99-8.61,13.64-6.7,17.52l105.16,104.69c60.06-50.4,133.01-83.32,212.3-86.49ZM129.42,81.74c0-26.31-21.33-47.64-47.64-47.64s-47.64,21.33-47.64,47.64,21.33,47.64,47.64,47.64,47.64-21.33,47.64-47.64ZM500.03,49.51c0-8.43-6.83-15.26-15.26-15.26s-15.26,6.83-15.26,15.26,6.83,15.26,15.26,15.26,15.26-6.83,15.26-15.26ZM935.36,81.78c0-26.3-21.32-47.62-47.62-47.62s-47.62,21.32-47.62,47.62,21.32,47.62,47.62,47.62,47.62-21.32,47.62-47.62ZM790.23,484.71c0-168.7-136.76-305.46-305.46-305.46S179.3,316.01,179.3,484.71s136.76,305.46,305.46,305.46,305.46-136.76,305.46-305.46ZM64.83,484.72c0-8.43-6.83-15.26-15.26-15.26s-15.26,6.83-15.26,15.26,6.83,15.26,15.26,15.26,15.26-6.83,15.26-15.26ZM935.24,484.72c0-8.43-6.83-15.26-15.26-15.26s-15.26,6.83-15.26,15.26,6.83,15.26,15.26,15.26,15.26-6.83,15.26-15.26ZM129.42,887.68c0-26.31-21.33-47.64-47.64-47.64s-47.64,21.33-47.64,47.64,21.33,47.64,47.64,47.64,47.64-21.33,47.64-47.64ZM935.36,887.72c0-26.3-21.32-47.62-47.62-47.62s-47.62,21.32-47.62,47.62,21.32,47.62,47.62,47.62,47.62-21.32,47.62-47.62ZM500.03,919.93c0-8.43-6.83-15.26-15.26-15.26s-15.26,6.83-15.26,15.26,6.83,15.26,15.26,15.26,15.26-6.83,15.26-15.26Z"/>
      <path class="cls-1" d="M329.11,501.33l305.86-.57c22.51,2.05,38.87,17.46,43.06,39.55l-.88,145.86-7.05,7.05h-370.64c-3.68-3.28-8.32-6.48-8.21-11.94,4.8-43.9-6.13-100.72.24-143.03,2.56-17.01,20.8-34.26,37.63-36.92ZM645.96,662.04v-113.84c0-7.24-11.68-15.91-19.14-15.11-91.06,5.28-190.02-7.03-280.15-.09-8.66.67-23.09,3.94-23.09,15.2v113.84h64.48v-64.48h32.24v64.48h128.95v-64.48h32.24v64.48h64.48Z"/>
      <path class="cls-1" d="M582.16,371.9c0,53.79-43.6,97.39-97.39,97.39s-97.39-43.6-97.39-97.39,43.6-97.39,97.39-97.39,97.39,43.6,97.39,97.39ZM548.45,371.89c0-35.17-28.51-63.68-63.68-63.68s-63.68,28.51-63.68,63.68,28.51,63.68,63.68,63.68,63.68-28.51,63.68-63.68Z"/>
    </g>
  </g>
</svg>