<?xml version="1.0" encoding="UTF-8"?>
<svg id="Camada_2" data-name="Camada 2" xmlns="http://www.w3.org/2000/svg" viewBox="0 0 1087.78 953.59">
  <defs>
    <style>
      .cls-1 {
        fill: #ffe7d2;
      }
    </style>
  </defs>
  <g id="Camada_1-2" data-name="Camada 1">
    <g id="EG78UY.tif">
      <g>
        <path class="cls-1" d="M831.62,32.22c21.54-6.28,28.22,35.43,37.55,51.26,13.44,22.81,38.78,46.89,62.5,58.81,12.31,6.19,43.15,11.13,43.53,26.51.45,18.15-17.69,16.92-28.83,21.93-33.25,14.95-60.93,36.87-78.94,69.06-5.93,10.61-15.57,41.95-22.32,45.61-23.66,12.79-29.22-28.33-37.54-43.89-13.62-25.46-39.18-50.51-65-63.58-10.26-5.19-38.65-12.21-42.47-20.61-2.87-6.29-1.65-15.81,3.68-20.5s36.28-13.57,47.65-20.29c20.43-12.06,40.12-31.75,52.17-52.15,7.16-12.12,17.42-49.05,28.04-52.15ZM924.49,167.68c-40.66-14.41-66.4-50.94-89.75-84.92-15.34,37.04-48.12,69.7-84.95,84.92,34.25,23.3,70.1,49.07,84.95,89.72,17.9-25.88,32.52-49.92,58.42-68.91,10.07-7.38,22.64-11.86,31.32-20.81Z"/>
        <g>
          <path class="cls-1" d="M586.01,622.33c4.75.02,43.13,24,52.95,28.46,43.73,19.85,110.32,37.79,158.17,40.79,39.1,2.45,77.65-14.88,49.42,44.61-28.82,60.72-117.11,137.49-188.91,114.24-63.72-20.64-97.13-131.58-92.24-191.53,1.04-12.7,3.9-36.65,20.6-36.57ZM604.2,667.35v49.73c0,8.12,10.23,35.31,14.14,44.08,11.3,25.38,36.12,61.56,67.15,61.61,47.77.08,106-55.29,122.56-98.39-70.38-4.7-143.42-19.84-203.85-57.03Z"/>
          <path class="cls-1" d="M596.34,498.18c32.39-4.41,65.49,5.84,88.01,29.63,10.51,11.1,35.47,49.05,10.34,56.59-18.92,5.68-21.05-15.3-28.76-26.05-15.96-22.24-40.68-30.44-67.57-26.63-10.99,1.56-30.59,16.01-38.46-.79-10.18-21.74,20.79-30.62,36.44-32.75Z"/>
          <path class="cls-1" d="M0,153.1c4.06-5.03,4.78-11.34,8.65-16.82,25.8-36.52,65.59-25.67,104.16-29.29,77.32-7.27,152.88-23.11,225.08-51.52,32.53-12.8,85.84-46.69,113.89-53.53,27.77-6.77,58.31,4.37,69.41,31.6,20.2,49.56,35.65,158.27,39.31,212.98.4,5.93-1.25,33.94.03,35.14.45.42,8.45-.18,12.19,1.14,26.71,9.44,58.53,30.71,85.65,42.96,96.74,43.68,197.81,67.8,303.77,77.17,31.94,2.83,72.05-3.82,99.02,15.02,44.76,31.27,22.35,78.06,9.58,120.28-44.43,146.92-136.53,356.06-295.42,405.71l-37.65,9.66h-60.66c-29.96-6.49-60.05-13.56-87.4-27.85-176.63-92.25-154.43-356.29-120.09-520.4,5.32-25.42,17.09-89.84,33.91-106.8,7.24-7.3,17.13-10.93,25.77-15.95-4.01-22.09-2.76-45.08-5.07-67.61-4.08-39.75-11.95-80.77-21.04-119.65-6.49-27.75-7.77-72.43-46.99-59.99-123.76,71.97-262.87,104.22-405.73,108.66-16.4,6.15-17.98,17.69-15.25,33.48,4.56,26.39,20.25,67.74,29.77,93.93,44.65,122.93,132.92,298.26,288.16,284.33,14.68-1.32,37.75-14.77,47.06,1.52,15.2,26.57-34.31,31.23-51.91,32.45C146.48,603.66,42.6,334.44,0,177.35v-24.26ZM542.95,313.72c-15.85,2.29-18.57,10.04-22.99,23.21-52.37,156.15-88.9,484.8,97.93,565.38,240.11,103.56,388.18-230.74,432.1-411.51,3.17-13.05,8.14-21.39,1.9-34.51-11.65-24.49-57.37-17.44-80.05-19.41-123.88-10.75-222-34.17-335.31-84.45-21.52-9.55-73.18-41.65-93.58-38.71Z"/>
          <path class="cls-1" d="M900.93,625.39c-5.66-4.54-12.02-16.55-20.26-22.16-19.61-13.34-45.93-14.7-67.01-4.23-10.55,5.24-23.33,22.12-35.87,7.63-22.45-25.94,44.42-48.34,63.02-48.63,27.87-.44,75.54,19.6,86.71,46.91,7.91,19.34-12.84,31.52-26.59,20.48Z"/>
        </g>
        <g>
          <path class="cls-1" d="M256.54,665.6c4.17,4.21,10.27,27.32,14.32,35.41,14.01,27.97,37.83,51.36,65.91,65.1,12.35,6.04,39.28,8.92,38.71,25.76-.57,16.92-31.76,22.04-45.53,29.48-20.84,11.26-42.4,32-54.36,52.39-6.27,10.7-16.52,45.26-24.97,47.8-23.31,7-25.4-24.25-33.76-40.42-13.62-26.34-36.66-49.6-63.23-62.93-15.64-7.85-49.15-10.26-38.33-34.36,2.92-6.5,37.06-17.41,47.07-23.27,19.81-11.61,40.36-32.68,51.57-52.75,7.57-13.56,19.28-65.75,42.59-42.2ZM325.15,793.46c-10.59-9.69-23.95-15.15-35.11-24.3-20.23-16.6-32.57-37.18-47.36-58.14-9.28,22.79-29.24,46.88-48.76,61.65-10.08,7.62-22.36,12.24-31.34,20.79,35.48,14.22,65.97,44.81,80.1,80.07,8.51-9,13.23-21.22,20.79-31.33,14.91-19.95,38.1-39.99,61.67-48.74Z"/>
          <path class="cls-1" d="M443.37,424.11c-19.43,19.26-34.99-20.39-49.07-30.86-41.74-31.05-104.02-10.53-114.16,41.12-2.45,12.51,1.98,37.99-16.85,39.16-33.31,2.07-13.7-56.03-4.91-73.04,29.1-56.34,103.09-73.56,153.92-34.92,12.76,9.7,47.25,42.51,31.07,58.55Z"/>
          <path class="cls-1" d="M244.34,231.19c29.39-8.94,26.23,19.47,15.76,37.59-20.57,35.61-69.06,50.98-107.18,35.87-10.38-4.11-19.79-10.7-16.04-23.07,6.47-21.36,23.94-8.18,35.24-5.84,22.41,4.66,46.86-3.9,59.5-23.3,4.06-6.23,5.21-18.97,12.71-21.26Z"/>
          <path class="cls-1" d="M440.95,192.4c15.88-3.53,25.36,9.49,18.93,23.73-10.36,22.93-48.71,41.1-72.87,41.47-19.59.29-77.71-17.66-60.51-43.74,13.08-19.84,30.76,5.11,47.04,8.51,15.92,3.33,33.06-.39,46.08-10,8.18-6.04,11.76-17.84,21.33-19.96Z"/>
        </g>
      </g>
    </g>
  </g>
</svg>