<?xml version="1.0" encoding="UTF-8"?>
<svg id="Camada_2" data-name="Camada 2" xmlns="http://www.w3.org/2000/svg" viewBox="0 0 968.27 902.88">
  <defs>
    <style>
      .cls-1 {
        fill: #ffe7d2;
      }
    </style>
  </defs>
  <g id="Camada_1-2" data-name="Camada 1">
    <g>
      <path class="cls-1" d="M129.06,516.06h146.08c20.6,0,78.28,31.71,97.55,43.49,47.91,29.27,92.56,66.22,135.3,102.45,45.58,20.9,173.44,34.5,196.92,79.12,6.18,11.74,4.53,19.87,4.43,32.84h220.63c7.14,0,23.62,12.06,28.08,18.27,11.55,16.1,11.03,47.93,9.28,67.45-2.01,22.44-17.75,38.59-39.55,43.06l-422.91.14-334.42-64.52-41.39.07c-.3,12.94,3.88,26.97-11.12,32.2l-108.34-.37c-4.47-2.83-9.5-6.81-9.59-12.57l.52-364.38c3.13-5.09,6.44-8.77,12.57-9.59,31.49-4.19,72.29,3.3,104.84.15,15,5.23,10.81,19.26,11.13,32.19ZM96.82,516.06H32.34v322.38h64.48v-322.38ZM129.06,806.2l57.16.26,330.73,64.18,396.97.11c15.07-1.4,19.74-6.1,21.16-21.16,1.46-15.56,3.09-41.51-17.39-43.21l-207.35-.19c-6.29,1.23-6.61,9.18-10.19,13.98-9.24,12.4-25.01,18.74-40.24,18.37-50.2-1.2-117.99-28.2-169.56-33.98-31.4-23.74-83.22-40.76-112.43-64.87-17.61-14.54-2.27-37.58,18.57-28.64l110.24,63.03,154,31.03c19.1.33,18.27-28.96,16.48-42.34-1.25-9.41-15.9-18.52-24.32-22.02-47.14-19.59-114.89-26.92-159.67-47.86-16.94-7.92-60.64-50.33-80.23-64.84-31.63-23.43-114.15-79.76-151.95-79.76h-131.97v257.9Z"/>
      <g>
        <path class="cls-1" d="M773.1,380.36c-3.62,3.75-21.35,16.51-22.48,18.82-1.66,3.38-1.67,20.76-1.15,25.27.26,2.27,13.88,12.48,17.39,18.97,9.06,16.77,8.61,36.41-2.25,52.36-4.44,6.52-21.99,17.48-22.71,19.6-1.62,4.77-.13,15.84-1.24,22.94-3.33,21.34-20.12,40.32-42.33,42.29-18.46,1.64-62.75,2.16-80.5-.26-16.75-2.28-32.76-16.97-37.33-33.19-2.6-9.24-.81-29.4-3.12-33.15-1.16-1.89-13.16-7.18-17.13-11.08-20.64-20.24-17.53-49.56-.01-70.48,2.67-3.18,8.39-4.22,9.68-8.45,1.34-4.4.83-18.28-.49-22.98-.56-1.99-25.58-22.5-30.39-28-78.42-89.73-39.96-237.83,76.07-270.53,163.46-46.07,274.7,156.79,157.98,277.86ZM715.39,419.36c.42-6.86-.75-14.2.16-20.99,3.31-24.66,23.43-30.3,38.05-46.58,62.6-69.65,34.78-188.3-55.92-215.96-124.77-38.05-217.36,113.66-135.37,211.94,19.74,23.66,48.88,32.6,42.24,71.6h110.84ZM735.02,456.14c-2.83-2.63-12.36-4.29-16.53-4.64-29.29-2.46-92.34-3.11-120.97.09-23.49,2.62-22.98,29.1-1.83,32.05,25.46,3.55,98.28,2.84,124.74.2,9.86-.98,19.71-5.29,19.12-16.98-.09-1.87-3.27-9.55-4.53-10.72ZM707.32,516.06h-94.7c.64,9.76-3.41,24.18,7.48,29.79,7.72,3.98,52.89,3.33,64.13,2.53,23.82-1.69,23.83-9.9,23.09-32.32Z"/>
        <path class="cls-1" d="M654.36.68c11.92-2.66,20.71,2.49,22.6,14.82,1.09,7.07,1.05,28.79-.34,35.67-3.89,19.29-30.92,17.85-33.67.35-1.97-12.55-3.99-47.4,11.4-50.84Z"/>
        <path class="cls-1" d="M410.61,177.91c4.95-1,40.4,9.52,44.81,12.81,13.32,9.95,3.81,31.75-10.84,31.11-4.86-.21-35.13-10.19-39.4-13.11-13.19-9.03-8.6-27.96,5.43-30.81Z"/>
        <path class="cls-1" d="M928.39,288.95c9.67,9.69,2.7,28.04-10.7,29.63-4.72.56-34.4-3.23-39.18-4.93-17.6-6.27-14.05-30.94,3.64-32.97,5.85-.67,28.98,2.31,35.49,3.91,3.01.74,8.71,2.31,10.76,4.36Z"/>
        <path class="cls-1" d="M900.25,178.01c18.94-2.76,27.75,17.65,16.71,28.86-2.33,2.37-35.69,14.16-39.92,14.65-15.67,1.82-25.92-16.15-15.7-27.97,3.82-4.42,32.39-14.59,38.92-15.54Z"/>
        <path class="cls-1" d="M549.58,22.86c18.68-4.27,27.65,20.57,32.36,35.27,7.57,23.63-12.36,36.02-26.83,20.79-4.15-4.37-16.98-33.61-17.14-39.46-.22-7.58,3.9-14.85,11.61-16.61Z"/>
        <path class="cls-1" d="M759.14,22.85c12.62-2.83,24.09,4.81,22.38,18.17-.48,3.78-14.34,34.72-16.86,37.74-11.37,13.63-31.49,5.23-28.95-14.85,1.11-8.78,14.22-38.99,23.43-41.06Z"/>
        <path class="cls-1" d="M847.86,85.27c12.82-2.48,24.52,10.87,19.12,23.28-1.66,3.82-27.58,27.71-31.22,29.21-18.05,7.41-32.14-8.89-21.31-25.33,3.45-5.24,27.65-26.04,33.41-27.15Z"/>
        <path class="cls-1" d="M432.86,280.85c13.47.18,21.9,10.46,17.66,23.77-4.85,15.2-34.21,9.77-46.49,14.05-18.36-.23-23.52-24.51-9.79-32.07,4.71-2.6,32.45-5.83,38.63-5.74Z"/>
        <path class="cls-1" d="M456.17,114.4c-11.4-13.47-2.17-33.15,15.97-29.12,4.8,1.07,31.24,24.24,33.8,28.71,8.35,14.58-4.45,29.67-20.84,24.85-2.52-.74-26.36-21.41-28.93-24.44Z"/>
        <path class="cls-1" d="M686.6,167.92c17.04-3.83,43.69,19.16,53.8,31.98,9.85,12.49,35.25,56.23,4.17,58.38-18.6,1.28-19.81-23.47-30.17-36.41s-18.31-14.26-29.91-22.47c-12.63-8.95-13.29-28.01,2.12-31.48Z"/>
      </g>
    </g>
  </g>
</svg>