<?xml version="1.0" encoding="UTF-8"?>
<svg id="Camada_2" data-name="Camada 2" xmlns="http://www.w3.org/2000/svg" viewBox="0 0 827.14 829.11">
  <defs>
    <style>
      .cls-1 {
        fill: #ffe7d2;
      }
    </style>
  </defs>
  <g id="Camada_1-2" data-name="Camada 1">
    <g id="_1RigRc.tif" data-name="1RigRc.tif">
      <g>
        <path class="cls-1" d="M0,97.13c6.24-16.33,18.17-25.47,36.34-22.57,5.78.92,11.98,7.9,17.04,5.62,6.62-2.98,24.84-27.99,33.22-34.91,12.19-10.08,15.9-6.01,29.99-2.39,16.8,4.32,33.9,11.08,50.21,17V7.25c0-.46,5.66-6.06,6.5-6.44,8.15-3.74,28.25,6.47,36.7,10.2,89.99,39.78,166.71,113.47,202.16,205.96,3.37.7,2.24-1.36,3.14-3.26,45.19-95.56,102.11-159.16,200.61-202.71,8.45-3.74,28.55-13.94,36.7-10.2.84.38,6.5,5.98,6.5,6.44v52.63c15.48-3.92,56.22-23.21,70.32-21.04,12.8,1.97,33.08,36.84,43.1,41.34,5.06,2.28,11.26-4.7,17.04-5.62,19.48-3.11,34.76,8.69,36.41,28.17l-.03,367.71c-2.2,18.99-25.95,11.92-25.95,3.2V100.37l-319.02,176.12v515.38s9.79-2.36,9.79-2.36l307.64-173.33c1.68-1.23,1.48-3,1.69-4.79,2.37-19.62-3-45.58,0-64.77,2.24-14.32,23.48-14.32,25.72,0,2.09,13.36,1.38,52.01.15,66.36-.92,10.76-3.25,15.7-11.38,22.63-98.24,54.39-194.62,113.21-293.66,166.25-7.05,3.77-22.12,13.51-28.57,15.15-5.85,1.48-11.96-.33-16.73,1.09-3.07.91-10.66,9.95-15.71,11.01h-93.93c-5.01-1.04-12.69-10.13-15.71-11.01-12.18-3.57-15.73-.83-30.73-8.14-100.99-49.23-198.51-117.95-299.59-168.42-9.52-5.43-16.87-12.23-19.97-22.95V97.13ZM192.71,32.35v38.87c10.86,3.95,51.43,19.18,54.4,29.1,3.67,12.26-7.94,18.31-18.82,15.47-10.88-2.83-34.21-17.2-46.96-22.66-12.87-5.51-26.37-10.9-39.59-15.47-7.24-2.5-29.99-11.04-35.85-11.29-1.86-.08-3.38.14-4.75,1.51l-25.86,27.64,280.94,157.94c11.77,6.7,23.26,2.62,35.68,2.36-18.28-28.09-41.03-53.37-66.37-75.31-6.83-5.91-33.96-24.61-36.45-29.97-4.48-9.63,5.69-20.44,17.06-17.04,5.1,1.52,25.95,18.98,31.47,23.6,10.36,8.69,19.73,18.69,29.99,27.49-3.73-9.89-10.44-19.42-16.48-28.04-38.49-54.95-96.41-98.98-158.4-124.19ZM633.19,32.35c-72.3,29.79-137.1,82.33-174.91,151.4l38.12-33.14c42.15-31.68,87.22-60.88,136.8-79.4v-38.87ZM434,255.82c12.34.83,24.03,4.07,35.68-2.36l281.69-158.76c-8.19-5.71-19-22.36-26.61-26.82-1.56-.92-2.73-1.97-4.75-1.51-110.2,33.2-220.83,91.8-286.02,189.45ZM25.91,101.18v513.36l319.02,177.33c.83-166.53-1.05-333.13-.08-499.67.03-5.88,3.29-11.79-1.02-17.05L30.88,99.42c-1.75-1.5-4.57.33-4.97,1.76ZM455.06,312.51v-28.34c0-.17-2.26-2.43-2.43-2.43h-79.35c-.17,0-2.43,2.26-2.43,2.43v28.34h84.21ZM370.85,338.43v29.15h84.21v-29.15h-84.21ZM370.85,391.87v301.21h84.21v-301.21h-84.21ZM370.85,718.99v29.15h84.21v-29.15h-84.21ZM455.06,774.05h-84.21v26.72c0,2.05,5.07,3.84,7.21,4.13,13.8,1.86,53.84,1.45,68.19.02,2.4-.24,8.81-1.25,8.81-4.15v-26.72Z"/>
        <path class="cls-1" d="M749.35,210.86c8.16-1.73,13.5.79,16.6,8.57-2.16,26.12,3.02,57.09.07,82.59-.39,3.33-.95,5.53-3.23,8.1l-229.63,131.51c-13.88,5.23-18.8-3.88-19.86-16.52-1.48-17.72-1.56-50.47-.01-68.14.43-4.91,1.39-9.48,4.2-13.61l231.85-132.51ZM740.07,246.12l-200.81,114.17v47.77l200.81-113.36v-48.58Z"/>
        <path class="cls-1" d="M407.61,458.61c9.57-2.86,17.42,2,18.33,11.76-3.99,46.05,5.2,100.82,0,145.82-1.9,16.47-24.07,16.48-25.98,0-5.22-44.97,4.01-99.79,0-145.82-.1-4.04,3.8-10.61,7.65-11.76Z"/>
      </g>
    </g>
  </g>
</svg>