<?xml version="1.0" encoding="UTF-8"?>
<svg id="Camada_2" data-name="Camada 2" xmlns="http://www.w3.org/2000/svg" viewBox="0 0 1092.06 1445.83">
  <defs>
    <style>
      .cls-1 {
        fill: #ffe7d2;
      }
    </style>
  </defs>
  <g id="Camada_1-2" data-name="Camada 1">
    <g id="_8DVSrd.tif" data-name="8DVSrd.tif">
      <g>
        <path class="cls-1" d="M877.7,1445.83c-34.11-12.34-64.74-46.73-58.56-85.41,2.4-14.98,16.52-24.48,13.44-40.09l-56.44-376.87c-73.92,22.45-153.63,14.25-225.59-11.27.98,18.1-12.24,44.18-11.49,60.65.68,14.85,19.17,37.81,19.62,62.43,2.54,138.31-215.65,134.78-202.74-8.76,1.77-19.63,11.71-35.05,19.69-52.21-28.55,5.54-53.53,8.57-82.35,1.97-19.15-4.39-60.18-17.2-48.72-44.25,11.35-26.8,47.49.21,65.05,2.52,31.34,4.13,76.45-5.17,99.26-27.2,18.74-88.49,21.64-191.73,78.43-265.84,5.2-6.79,23.26-20.67,23.6-26.91-10.27-27.75-21.28-55.43-33.21-82.48-10.64-24.14-38.65-69.74-44.28-91.13-7.89-29.99,22.43-43.44,40.5-17.97,10.67,15.04,25.36,49.46,33.91,67.67,15.33,32.6,26.99,67.84,44.01,99.13,33.89-16.73,69.88-21.81,107.27-24.98l61.6,6.09c24.79-53.69,71.33-92.23,130.59-101.42,114.53-17.75,211.71,80.94,192.48,195.43-10.66,63.45-54.72,108.47-112.12,133.18,7.37,79.5,15.47,159.44,18.77,239.08-9.15,24.31-39.44,19.35-43.85-5.7l-17.57-226.54c-72.13,5.13-142.78-39.23-168.58-106.49-3.37-8.79-11.95-33.74-11.95-41.67v-43.74c-55.12-6.19-111.61-3.95-157.71,29.87-83.44,61.22-79.48,202.16-101.75,294.69,15.94-4.35,35.44,2.13,50.71,8.47,15.62-68.03,26.13-152.3,62.64-212.52,11.1-18.3,52.43-71.67,74.12-41.42,19.84,27.68-25.87,37.35-25.79,52.16.11,19.85,44.07,30.46,37.99,58.61-7.96,36.81-52.52-.2-64.28-14.87l-22.48,81.65c28.43,9.24,57.46,16.68,87.3,19.93,2.37-2.25-31.13-44.65-3.85-58.86,39.68-20.68,31.74,61.54,80.99,58.65,13.58-.8,42.22-9.64,54.1-16.63,17.35-10.21,46.6-46.66,58.46-51.55,19.62-8.1,39.86,7.78,31,28.18-3.22,7.42-28.26,29.79-35.87,37.49-6.89,6.96-17.73,8.38-15.85,21.05l58.04,385.32c4.33,8.91,42.17,8.81,52.19,14.07l-14.19-190.62c5.57-29.28,41.61-25.66,45.01,3.18l14.62,195.64c35.25,11.45,95.51,4.02,113.15,43.41l5.04,16.13v50.8h-214.36ZM1001.43,656.18c0-68.57-55.56-124.17-124.09-124.17s-124.09,55.59-124.09,124.17,55.56,124.17,124.09,124.17,124.09-55.59,124.09-124.17ZM513.58,1057.17c0-31.29-25.35-56.65-56.61-56.65s-56.61,25.36-56.61,56.65,25.35,56.65,56.61,56.65,56.61-25.36,56.61-56.65ZM1046.93,1400.64c-1.23-4.9-6.45-6.35-10.64-7.66-49.03-15.38-110.25-16.51-160.41-31.69-22.21-.02-8.78,30.99,7.47,37.97,16.85,7.23,23.44,1.38,37.96,1.3,41.87-.24,83.79.45,125.63.09Z"/>
        <path class="cls-1" d="M255.04,130c3.21,2.66,14.43,4.32,21.6,10.82,32.24,29.21,96.3,130.97,121.63,171.81,6.26,10.1,28.58,43.05,30.33,51.51,5.02,24.17-12.45,36.82-33.41,24.94-48.25-70.26-92.05-143.6-145.16-210.45-5.25-1.31-33.71,34.56-38.13,41.07,25.97,49.98,55.74,97.81,79.62,148.94,59.42,127.2,107.26,271.9,89.79,413.96,27.2-30.2,64.13,1.4,32.81,32.86-28.04,28.16-74.29,26.89-107.03,8.92-76.41-41.96-107.38-165.66-123.28-245l-67.68,19.81c15.86,91.44,39.65,177.61,83.17,259.67,9.69,18.28,34.59,40.16,16.83,59.06-24.19,25.75-51.47-28.73-60.97-45.93-46.66-84.44-69.19-187.15-84.21-281.95-41.88-29.19-105.71-137.95-47.73-175.61,24.7-16.04,43.67-9.97,67.33,2.92,20.88,11.37,103.05,66.1,115.93,81.55,5.68,6.82,11.02,15.14,12.79,23.89,12.2,60.51,20.26,122.14,45.89,179.86,14.39,32.4,37.6,71.55,70.99,85.58,18.74-132.99-24.5-268.14-79.36-387.65-12.93-28.17-28.49-59.29-43.26-86.54-5.17-9.55-38.19-68.51-42.82-70.04-5.17-1.71-12.54.3-18.63-1.11-23.27-5.41-37.85-20.92-43.59-43.87-8.03-32.08-18.55-101.73-20.47-134.73-2.92-50.23,45.18-81.12,88.33-54.53,24.37,15.01,52.65,53.45,64.41,79.49,3.23,7.16,12.63,39.37,14.29,40.75ZM142.94,44.32c-3.61.13-8.17,2.8-9.39,6.37.79,17.45,15.86,142.18,21.91,146.47,6.03,4.27,12.28.49,17.28-2.84,3.08-2.05,34.88-36.49,36.65-39.51,8.27-14.11-12.62-55.72-21.49-69.11-6.41-9.67-33.93-41.76-44.96-41.36ZM50.37,449.87c-19.27,6.19,9.99,59.41,16.68,70.01,7.79,12.35,25.06,37.54,40.66,35.86,7.13-.77,66.84-19.46,67.67-22.95.96-4.03-3.53-6.02-5.86-8.2-12.14-11.38-91.21-65.15-105.98-71.73-4.37-1.95-7.81-4.71-13.18-2.99Z"/>
      </g>
    </g>
  </g>
</svg>