<?xml version="1.0" encoding="UTF-8"?>
<svg id="Camada_2" data-name="Camada 2" xmlns="http://www.w3.org/2000/svg" viewBox="0 0 1032.05 1007.62">
  <defs>
    <style>
      .cls-1 {
        fill: #ffe7d2;
      }
    </style>
  </defs>
  <g id="Camada_1-2" data-name="Camada 1">
    <g>
      <path class="cls-1" d="M1032.05,890.36c-2.13,2.46-8.19,10.07-11.08,10.07h-262.94v93.69c0,3.75-11.75,14.57-17.08,13.14l-447.44.05c-5.93,2.24-19.05-8.73-19.05-13.19v-93.69H11.53c-1.8,0-9.89-6.84-10.66-9.48-3.66-12.48,5.14-43.11,9.62-56.03,20.01-57.65,67.2-100.41,122.93-122.88-56.22-40.82-56.82-126.88-4.05-171.28,45.05-37.89,113.79-33.67,153.21,10.05,42.78,47.44,36.7,122.64-14.12,161.24,21.12,10.1,41.34,21.06,60.53,34.41,46.39-26.35,102.44-33.41,155.01-37.45l-23.11-14.13c-81.61-70.39-67.59-231.46,64.4-223.57,116.61,6.97,121.57,158.38,48.32,221.55l-25.12,16.16c52.9,4.7,109.41,11.18,156.16,37.8,17.52-15.34,39.04-24.02,59.38-34.76-92.69-73.88-22.33-221.7,95.16-193.85,88.07,20.88,112.84,140.54,39.89,193.84,51.19,20.73,92.97,56.66,116.56,107.09l16.41,51.09v20.15ZM501.66,506.04c-106.77,13.66-48.93,218.75,43.46,166.36,61.88-35.09,67.21-180.52-43.46-166.36ZM277.21,625.08c0-42.3-34.29-76.6-76.6-76.6s-76.6,34.29-76.6,76.6,34.29,76.6,76.6,76.6,76.6-34.29,76.6-76.6ZM908.49,625.09c0-42.31-34.3-76.61-76.61-76.61s-76.61,34.3-76.61,76.61,34.3,76.61,76.61,76.61,76.61-34.3,76.61-76.61ZM36.72,866.18h237.75v-43.32c0-5.3,5.38-20.8,7.69-26.56,4.3-10.7,11.01-20.19,18.5-28.81-98.5-69.8-237.4-18.88-263.95,98.69ZM995.79,866.18c-26.6-117.61-165.37-168.45-263.94-98.7,7.48,8.63,14.2,18.12,18.5,28.82,2.31,5.75,7.69,21.25,7.69,26.56v43.32h237.75ZM308.72,822.86v150.11h415.06v-150.11c0-6.74-8.55-21.59-13.07-27.22-32.34-40.32-102.68-44.45-150.13-52.34-49.74,0-88.66,0-88.66,0-47.62,5.4-155.09,18.99-163.2,79.57Z"/>
      <g>
        <path class="cls-1" d="M507.61,135.22c10.31-2.34,22.85-1,28.47,8.96l34.49,88.41,95.37,5.37c53.34,34.65-41.55,71.6-60.77,97.72l23.18,92.61c-3.55,22.86-18.69,29.3-38.93,19.18-12.46-6.23-65.8-46.23-72.31-46.77-6.68-.55-64.25,42.89-78.06,48.78-16.97,7.24-35.09-2.21-34.9-21.19.22-22.44,19.65-61.41,23.03-85.48.34-2.41.97-4.7.11-7.12l-70-57.05c-12.79-12.98-8.05-32.15,7.73-40.19l96.91-5.85c3.76-2.51,26.2-72.93,32.4-84.46,2.94-5.48,6.67-11.41,13.27-12.91ZM518.25,187.17c-5.16-.8-3.13.45-4.2,2.83-7.11,15.79-19.74,66.66-33.3,73.48-4.53,2.28-16.46,3.83-21.93,4.26-18.89,1.46-38.47-.11-57.4,2.06,11.46,14.22,56.19,39.07,61.12,54.7,4.95,15.73-19.84,76.39-16.77,80.27,17.58-7.23,52.11-39.95,69.48-40.48,18.97-.57,53.09,32.68,71.52,40.48,3.06-3.88-21.73-64.54-16.77-80.27,4.82-15.31,49.82-40.56,61.12-54.7-18.28-1.96-37.13-.72-55.39-2.06-14.18-1.04-26.1-1.38-33.66-14.69-10.06-17.7-16.49-46.31-23.8-65.89Z"/>
        <path class="cls-1" d="M680.99,88.84c17.28-2.56,24.15,16.37,14.58,28.82l-68.64,62.33c-15.65,13.65-36.93-4.72-26.11-22.09l71.57-65.43c2.5-1.68,5.63-3.18,8.6-3.62Z"/>
        <path class="cls-1" d="M344.46,88.8c6.89-1.39,12.25,1.81,17.64,5.7l69.63,63.35c8.09,18.52-7.17,34.14-24.95,22.94-8.72-5.5-62.43-53.91-68.89-62.07-8.16-10.3-7.65-27.05,6.57-29.92Z"/>
        <path class="cls-1" d="M513.77.17c10.39-1.24,17.47,4.44,18.65,14.69,1.34,11.59,1.78,60.04-.48,70.13-3.28,14.71-29.58,15.81-31.84-3.56-1.56-13.34-1.82-55.62.16-68.42,1.1-7.09,6.4-12,13.51-12.84Z"/>
      </g>
    </g>
  </g>
</svg>