<?xml version="1.0" encoding="UTF-8"?>
<svg id="Camada_2" data-name="Camada 2" xmlns="http://www.w3.org/2000/svg" viewBox="0 0 858.82 858.63">
  <defs>
    <style>
      .cls-1 {
        fill: #ffe7d2;
      }
    </style>
  </defs>
  <g id="Camada_1-2" data-name="Camada 1">
    <g id="FNQtWC.tif">
      <g>
        <path class="cls-1" d="M465.56,858.63h-72.61l-38.35-5.73C177.54,821.68,37.2,681.79,6.24,504.55l-5.73-38.35c1.19-23.77-1.6-49.03,0-72.61C11.68,229.2,130.91,79.79,284.87,25.31c318.06-112.54,634.68,167.54,563.95,496.53-38.49,179.02-198.63,324.03-383.26,336.79ZM714.51,566.45c27.02,8.25,50.71,26.2,70.02,46.66,107.48-202.25,15.8-457.68-192.14-549.48C305.52-63.02-5.77,171.01,31.85,480.67c5.49,45.2,20.56,92.48,42.14,132.44,19.31-20.46,43-38.41,70.02-46.66-57.89-37.4-79.47-111.81-43.95-172.72,42.15-72.27,145.74-82.52,201.22-19.97,3.21,3.62,15.11,22.95,16.5,23.28,2.37.57,15.62-20.51,18.97-24.22,56.82-62.78,161.81-49.64,202.31,24.22,2.39.58,2.96-1.42,4.03-2.86,5.04-6.77,8.82-14.66,14.94-21.36,60.46-66.21,172.17-48.01,207.42,34.66,25.38,59.53,1.95,124.54-50.94,158.97ZM304.01,457.54c0-53.05-43.01-96.06-96.06-96.06s-96.06,43.01-96.06,96.06,43.01,96.06,96.06,96.06,96.06-43.01,96.06-96.06ZM525.3,457.54c0-53.05-43.01-96.06-96.06-96.06s-96.06,43.01-96.06,96.06,43.01,96.06,96.06,96.06,96.06-43.01,96.06-96.06ZM746.61,457.54c0-53.05-43.01-96.06-96.06-96.06s-96.06,43.01-96.06,96.06,43.01,96.06,96.06,96.06,96.06-43.01,96.06-96.06ZM320.31,516.34c-2.11-.29-2.23-.61-3.55,1.07-2.58,3.3-5.5,10.67-8.82,15.05-10.43,13.77-21.85,23.33-36.01,33.15,16.55,6.02,31.55,15.12,45.9,25.16,15.53-7.65,29.76-20.21,47.45-24.32-17.26-14.29-37.08-28.15-44.97-50.11ZM541.6,516.34c-2.11-.29-2.23-.61-3.55,1.07-2.58,3.3-5.5,10.67-8.82,15.05-10.43,13.77-21.85,23.33-36.01,33.15,16.46,6.19,31.44,15.24,45.9,25.16,15.41-7.75,29.89-20.49,47.45-24.32-17.26-14.3-37.08-28.15-44.97-50.11ZM249.46,787.75v-75.2c0-20.73,17.94-60.08,29.34-77.85,3.85-6,15.44-17.86,17.13-22.67,1.12-3.18-.77-1.98-1.97-2.81-49.26-34.32-117.37-35.05-167.79-2.67-6.44,4.14-35.35,27.63-35.86,33.47-.46,5.18,21.45,33.75,26.1,39.6,35.87,45.2,82.11,81.33,133.05,108.12ZM423.71,582.54c-53.37,1.71-103.7,33.84-128.47,80.71-22.38,42.34-18.77,90.05-17.28,136.64,85.25,36.58,187.31,39.84,275.37,10.8,4.33-1.43,24.57-8.14,26.39-9.92,1.72-1.69,1.53-3.02,1.78-5.14,2.39-20.18.86-62.38-2.03-82.88-10.74-76.28-78.75-132.68-155.75-130.21ZM609.05,787.75c50.94-26.81,97.2-62.86,133.07-108.1,4.62-5.83,26.52-34.5,26.07-39.63-.26-2.98-14.8-17.02-18.2-20.02-43.82-38.64-107.52-48.08-161.13-24.46-9.33,4.11-17.81,9.92-26.54,15.04,18.2,23.97,33.19,46.98,41.05,76.51,1.59,5.98,5.68,20.22,5.68,25.44v75.2Z"/>
        <path class="cls-1" d="M476.35,133.83l80.53,18.88c10.17,3.25,14.55,14.24,8.18,23.14l-63.34,51.16,23.91,72.76c3.59,14.21-6.51,23.04-20.38,18.65l-76.59-36.83-75.43,36.83c-13.83,4.38-23.97-4.4-20.38-18.65l23.91-72.76-64.19-52.03c-4.45-9.32-1.65-17.8,7.92-21.66,23.38-9.43,56.41-9.41,80.3-19.97,10.22-12.35,29.91-69.18,40.58-75.25,8.82-5.01,16.19-1.25,21.42,6.43,13.28,19.54,21.52,48.5,33.55,69.3ZM430.96,104.88c-4.03-.88-2.76.55-3.85,2.22-6.77,10.47-21.09,46.93-29.03,52.17-11.73,7.74-45.92,9.07-60.45,14.77,7.3,9.82,47.08,33.77,49.77,42.69,4.14,13.69-14.26,44.02-15.19,59.29,2.13,2.23,47.61-25.69,56.18-25.69,9.1,0,55.72,27.98,57.91,25.69-.93-15.27-19.33-45.59-15.19-59.29,2.7-8.92,42.47-32.87,49.77-42.69-12.95-4.67-54.09-8.19-63.17-15.51-7.46-6.02-20.59-43.45-26.76-53.65Z"/>
      </g>
    </g>
  </g>
</svg>