<?xml version="1.0" encoding="UTF-8"?>
<svg id="Camada_2" data-name="Camada 2" xmlns="http://www.w3.org/2000/svg" viewBox="0 0 771.18 769.72">
  <defs>
    <style>
      .cls-1 {
        fill: #ffe7d2;
      }
    </style>
  </defs>
  <g id="Camada_1-2" data-name="Camada 1">
    <g id="_3Ypjxh.tif" data-name="3Ypjxh.tif">
      <g>
        <path class="cls-1" d="M417.58,769.72c-1.88-3.73-6.57-5.29-6.28-10,3.62-53.16-4.54-112.06.03-164.53,2.87-32.95,48.9-65.39,69.08-90.66,1.86-2.33,3.8-4.62,5.04-7.37l.37-125.25c5.09-29.63,34.65-43.84,62.04-33.34v-81.42c0-2.76,9.01-18.34,11.58-20.99,12.51-12.94,34.22-15.66,50.46-9.25v-44.2c0-2.31,8.07-16.74,10.2-19.27,21.53-25.44,66.95-15.64,75.12,16.94,31.64-16.08,66.3-1.34,75.97,32.57v227.98c-26.52,44.48-50.07,91.03-75.31,136.38-28.92,34.27-71.49,65.04-99.17,99.34-4.17,5.16-11.61,17.68-11.61,24.06v62.03c0,.64-5.79,4.89-6.2,6.98h-161.29ZM645.58,411.47c1.48,1.1,22.72-25.85,23.95-27.98,1.29-2.24,2.59-4.08,2.43-6.87-4.31-58.11,5.65-124.32-.05-181.47-1.09-10.95-5.95-20.07-18.06-20.42-13.63-.39-18.19,10.14-19.2,21.9-5.32,61.93,4.16,131.28-.03,194l10.96,20.85ZM560.26,744.91v-53.5c0-6.05,9.02-22.01,13.16-27.16,27.64-34.3,70.32-65.03,99.14-99.37l73.07-133.2.71-207.07c-3.19-31.81-43.78-34.11-49.2-2.71l-.34,165.6-4.09,8.31-133.97,170.08c-1.19,1.13-1.91.55-3.1-.06-3.58-1.82-17.92-13.05-16.93-16.81l82.74-105.06c2.44-10.79,2.98-36.97-14.71-33.45-5.76,1.14-16.98,13.91-21.7,18.75-43.12,44.21-90.44,94.04-131.03,140.37-7.07,8.07-17.81,20.51-17.81,31.81v143.45h124.07ZM572.67,266.47v137.25c10.82-10.24,20.79-20.48,37.23-18.6-2.08-36.64,2.74-76.21.06-112.51-2.37-32.14-34.1-28.69-37.29-6.14ZM510.63,470.4l35.75-36.36c1.73-1.79,1.34-4,1.56-6.19,1.12-11.32,1.02-35.25-.11-46.6-1.12-11.24-6.46-20.78-19.13-20.42-8.79.25-18.08,8.52-18.08,17.3v92.28Z"/>
        <g>
          <path class="cls-1" d="M194.26,769.72c-1.58-3.36-5.4-4.59-6.17-8.56-5.78-29.75,10.58-57.39-12.4-85.3-28.07-34.09-69.3-64.49-98.42-98.54-24.74-46.88-52.04-92.86-75.35-140.21,4.64-70.68-6.05-148.99-.02-218.77,3.19-36.95,44.34-55.04,76.03-37.94,8.51-32.76,53.09-42.24,75.15-16.97,2.06,2.36,10.17,17.12,10.17,19.3v44.2c16.75-6.61,38.57-3.51,51.17,10.09,2.3,2.48,10.86,17.7,10.86,20.15v81.42c27.3-10.59,56.91,3.93,62.04,33.34l.33,125.29c19.13,29.22,71.03,61.99,74.16,97.98,4.56,52.47-3.59,111.37.03,164.53.28,4.71-4.4,6.27-6.28,10h-161.29ZM127.55,411.47l10.96-20.85c-4.19-62.72,5.29-132.07-.03-194-2.54-29.59-34.51-28.97-37.26-1.48l.83,185.24c1.98,2.75,23.89,32.29,25.5,31.08ZM336.94,744.91v-143.45c0-11.3-10.75-23.75-17.81-31.81-40.64-46.39-87.86-96.1-131.03-140.37-4.72-4.84-15.94-17.6-21.7-18.75-17.69-3.52-17.15,22.67-14.72,33.46l82.75,105.05c.99,3.76-13.35,14.99-16.93,16.81-1.19.6-1.91,1.18-3.1.06l-133.97-170.08-4.09-8.31-.63-166.87c-8.36-30.71-46.12-27.65-48.99,5.45-5.65,65.28,3.74,139.43.79,205.59l73.07,133.2c28.82,34.34,71.5,65.07,99.14,99.37,4.15,5.15,13.16,21.1,13.16,27.16v53.5h124.07ZM200.46,403.72v-137.25c0-9.76-10.56-17.99-20.24-17.14-13.5,1.19-16.19,11.59-17.05,23.28-2.68,36.3,2.14,75.87.06,112.51,16.44-1.88,26.41,8.36,37.23,18.6ZM262.5,470.4v-92.28c0-8.77-9.29-17.05-18.08-17.3-12.66-.37-18,9.18-19.13,20.42-1.13,11.36-1.23,35.28-.11,46.6.22,2.2-.17,4.4,1.56,6.19l35.75,36.36Z"/>
          <path class="cls-1" d="M293.17.92c35.71-4.03,67.29,7.23,92.83,32.03,19.06-15.71,41.06-30.15,66.5-32.43,108.99-9.8,161.69,121.31,82.97,193.08-47.28,37.54-89.7,86.74-136.48,124.06-5.77,4.6-9.49,7.12-17.48,5.03-49.88-42.26-96.72-88.46-146.19-131.39C168.35,131.33,202.48,11.16,293.17.92ZM306.96,25.9c-65.93.91-103.45,76.71-66.81,131.09,5.1,7.56,11.95,14.01,18.43,20.34,35.59,34.82,81.93,77.95,120.21,109.31,1.75,1.43,6.37,5.44,8.27,5.16,2.14-.32,20.8-17.5,24.34-20.66,39.28-35.03,77.54-71.4,116.25-107.08,60.21-73.33-27.06-175.76-106.54-125.15-9.77,6.22-24.56,24.19-35.35,23.78-8.89-.34-17.78-11.89-24.83-17.18-16.67-12.51-32.45-19.91-53.97-19.62Z"/>
        </g>
      </g>
    </g>
  </g>
</svg>