<?xml version="1.0" encoding="UTF-8"?>
<svg id="Camada_2" data-name="Camada 2" xmlns="http://www.w3.org/2000/svg" viewBox="0 0 668.86 1081.29">
  <defs>
    <style>
      .cls-1 {
        fill: #ffe7d2;
      }
    </style>
  </defs>
  <g id="Camada_1-2" data-name="Camada 1">
    <g id="C0wF7O.tif">
      <g>
        <path class="cls-1" d="M297.91,1080.67c-204.46-17.41-340.75-230.96-285.59-426.26,37.81-133.85,162.64-236.16,302.46-240.56-2.33-108.01-70.6-191.26-159.1-244.84-8.79-11.95-.54-30.45,14.55-29.48,9.33.6,42.48,25.84,51.58,32.91,40.87,31.76,72.91,68,96.57,114.34,2.86,5.59,12.56,33.67,14.33,34.23,4.36,1.38,2.75-2.48,3.71-4.63,17.44-39.07,32.28-68.77,61.58-100.92,13.74-15.08,83.71-76.86,101.03-75.91,15.14.83,21.34,19.4,11.79,30.61-88.44,52.47-155.72,136.8-158.12,243.7,126.73,4.1,241.74,88.44,289.75,204.75,15.66,37.94,24.21,79.7,26.41,120.22v14.77l-6.94,57.41c-23.84,121.99-116.53,223.68-235.94,257.57l-56.41,12.1c-23.25-1.45-48.7,1.96-71.66,0ZM354.83,447.6c-68.51-3.11-137.19,14.84-192.89,54.86-3.09,3.59,4.64,2.11,6.1,1.88,14.8-2.26,27.2-11.17,42.11-1.59,20.86,13.4.48,46.31-8.84,62.33-8.29,14.24-22.59,35.62-38.32,41.82-9.8,3.86-22.37,2.8-31.51,8.54-11.07,6.96-21.41,26.53-30.61,36.88-16.97,19.09-36.88,36.26-60.04,47.51-4.04,4.1-6.17,28.49-6.47,35.73-.92,22.64,1.9,53.1,7.51,74.98.61,2.4-.14,6.86,3.09,6.34,9.1-29.63,3.13-58.47,12.12-88.11,11.72-38.6,35.55-59.93,62.03-16.69,7.36,12.03,13.57,32.9,22.84,42.55,16.36,17.02,52.13,21.81,50.45,54.59-.78,15.24-16.56,27.89-9.24,39.21,17.23,26.65,96.3,27.19,84.72,72.4-5,19.54-54.33,28.15-54.24,32.17,17.32,12.67,23.83,29.18,13.45,49.38-3.9,7.58-11.37,11.34-13.48,19.18,76.2,31.61,159.67,32.83,235.99,1.01,120.65-50.3,197.43-178.98,181.3-310.1-.66-5.38-3.38-25.32-5.18-28.58-1.9-3.43-2.7-1-4.6-.32-10.68,3.8-20.96,12.51-32.34,15.18,13.84,12.87,38.16,21.21,33.24,44.86-4.03,19.4-27.73,26.47-36.22,39.72-9.86,15.41-19.34,54.96-28.28,75.08-22.97,51.66-77.69,128.68-130.52,152.08-21.45,9.5-38.46-.34-40.65-23.65-5.03-53.53,28.77-164.67-4.14-206.87-15.24-19.54-36.03-1.74-55.25,3.75-25.82,7.37-38.59,7.56-56.09-14.67-27.79-35.29-47.32-78.57-48.89-124.25-.48-14.03,8.13-23.96,17.92-32.64,5.46-4.84,44.53-32.31,49.01-33.23,13.63-2.8,31.04,2.32,45.98,1.71,30.73-1.25,51.46-12.89,83.13-1.1,8.85,3.29,24.96,14.76,33.03,15.18,8.59.44,22.79-10.65,30.19-15.21-10.21-7.26-32.73-35.09-43.28-36.8-17.75-2.88-42.63,6.43-61.04,8.28-23.3,2.34-54.84,5.45-77.86,6.45-9.5.41-20.93,1.61-27.62-6.28-19.3-22.77,22.03-40.34,37.7-49.03,8.09-4.49,42.57-19.35,45.86-23.75,4.19-5.62-2.68-22.43-.17-30.76ZM616.18,648.04c-32.5-90.22-106.3-161.51-198.63-188.33-6.6-1.92-17.34-5.46-23.76-5.8-4.41-.23-2.69-.03-3.17,3.14-2.37,15.64,9.04,30.1-7.37,45.4l-19.99,12.66c32.25,1.14,64.94-17.35,96.27-2.47,7.78,3.69,55.65,47.69,60.65,55.34,6.58,10.08,7.31,19.48-.03,29.31-6.56,8.78-54.34,32.18-66.17,32.92-22.47,1.42-36.86-17.25-56.13-19.94-20.57-2.88-44.52,5.49-65.06,6.23-10.34.37-21.3-2.87-29.56-2.33-10.98.72-32.84,22.6-44.41,27.61l9.15,56.32,35.14,53.59c29.02-2.12,51.38-24.94,82.67-13.27,30.3,11.3,43.1,51.95,45.03,81.53,3.27,50.2-5.13,101.29-10.63,150.97,1.62,1.62,8.4-4.11,10.32-5.47,39.65-28.24,70.65-69.47,91.21-113.37,12.07-25.75,24.16-77.16,40.42-95.64,3.99-4.53,14.83-13.06,20.33-15.56-16.5-14.62-70.84-42.64-30.98-65.8,17.44-10.13,46.32-15.49,64.71-27.05ZM173.54,540.47c-1.52-1.39-29.32,5.69-34.8,6.28-7.1.77-23.66-1.79-28.41,1.1-1.96,1.2-15.89,19.92-18.59,23.59-17.21,23.4-31.34,51.09-40.42,78.74,26.57-15.21,39.74-55.96,67.43-68.57,11.35-5.17,24.34-3.88,33.8-10.47,4.24-2.96,24.03-27.88,20.98-30.67ZM222.01,909.77c-45.19-15.37-103.17-47.46-65.47-102.16l-41.03-28.62-24.13-42.27c-6.69,15.55-2.76,31.62-4.28,47.43-2.83,29.66-13.71,57.98-26.58,84.44,16.83,35.98,40.62,71.1,69.88,98.07,6.15,5.67,44.94,36.62,50.22,35.61,4.91-.94,11.48-14.46,16.08-17.62-14.1-12.33-42.81-12.54-33.78-38.09,3.93-11.12,13.55-15.5,22.59-21.68l36.5-15.11Z"/>
        <g>
          <path class="cls-1" d="M53.82,38.62c-24.31,101.49,42.33,208.51,142.91,232.79,11.63,2.81,42.42,4.47,49.01,9.45,7.97,6.01,7.98,21.51,0,27.52-12.24,9.2-52.96-.91-67.97-5.33C68.8,270.97-1.24,158.74,16.06,46.2c1.28-8.32,5.43-30.38,10.94-35.47C42.64-3.72,112.34-.34,133.55,3.36c80.86,14.1,154.51,78.74,177.55,157.76,3.98,13.64,13.53,40.5-8.08,43.71-23.03,3.42-23.19-27.59-29.39-44.18C241.11,73.62,145.22,19.26,53.82,38.62Z"/>
          <path class="cls-1" d="M420.82,307.66c-7.12-6.52-6.68-21.07.92-26.8,7.16-5.39,37.12-6.58,49.01-9.45,101.11-24.4,166.9-131.16,143.03-232.89-86.43-17.95-177.17,29.08-214.39,108.69-5.85,12.52-14.11,51.05-22.32,55.72-14.86,8.45-27.82-3.41-26.28-19.89,7.61-81.47,94.89-158.76,170.91-177.15,24.46-5.92,97.9-11.07,117.61,3.9,8.43,6.4,14.06,45.5,14.79,56.94,7.49,117.89-80.04,227.76-197.35,243.41-10.68,1.42-27.49,5.24-35.92-2.49Z"/>
        </g>
      </g>
    </g>
  </g>
</svg>