<?xml version="1.0" encoding="UTF-8"?>
<svg id="Camada_2" data-name="Camada 2" xmlns="http://www.w3.org/2000/svg" viewBox="0 0 1239.09 1376.05">
  <defs>
    <style>
      .cls-1 {
        fill: #ffe7d2;
      }
    </style>
  </defs>
  <g id="Camada_1-2" data-name="Camada 1">
    <path class="cls-1" d="M10.71,1376.05c-16.05-5.49-12.8-40.3,1.34-40.3h55.07v-81.94c0-1.58,6.17-19.05,7.58-21.97,9.75-20.18,31.6-34.82,53.56-37.78,40.79-5.5,134.21-4.05,176.71-.79,9.14.7,16.69,3.7,25.43,5.47v-73.88c0-9.29,21.64-34.5,29.72-40.13,30.94-21.55,70.74-7.43,104.88-13.92l87.77-185.65c6.3-54.01,1.07-115.25,8.96-168.35,2.36-15.88,27.72-108.3,34.62-118.51,10.43-15.45,34.57-10.28,37.57,5.47,3.57,18.73-15.28,56.49-18.75,76.46l89.53-34.7c10.87-32.93,24.4-65.61,31.37-99.59-20.5,2.84-35.41-16.13-21.54-33.64l203.98-126.45c14.01-11.19,23.39-27.47,27.88-44.65.63-2.41,5.52-15.15-2.08-12.84-86.86,50.45-177.67,94.55-263.73,145.96-19.64,16.47-17.17,96.52-55.66,76.61-20.54-10.63-2.63-50.88,3.64-68.18,1.99-5.49,13.69-27.69,13.31-29.25-.73-3.01-7.92-5.18-10.59-8.32-10.45-12.29-38.65-65.38-40.29-80.58-3.45-31.87,9.4-53.06,35.81-68.98,79.83-48.11,108.79,21.36,134.86,83.81l162.01-86.46.37-272.31c3.98-33.89,49.98-22.82,43.03,9.48,83.93,1.1,168.45-2.33,252.11,1.76,16.19,4.94,23.52,25.14,17.2,40.53-5.82,14.17-65.06,56.66-65.05,61.12,18.02,23.6,94.82,60.81,57.8,95.48-1.95,1.82-9.36,7.95-10.85,7.95h-251.18c1.57,9.48-2.16,24.73-.12,33.14.49,2.02,13.69,5.51,18.31,14.48,11.31,21.93,5.51,59.58-2.72,82.03-2.62,7.15-15.48,25.93-15.48,27.51v353.27h138.35c20.5,0,55.58,43.75,52.34,65.86l.05,522.47h60.45c.66,0,8.06,7.86,9.05,9.74,7.21,13.77.72,20.15-7.7,30.56H10.71ZM1173.95,73.11h-206.86v120.89h206.86c-18.2-23.37-58.64-35.17-50.46-70.63,3.56-15.42,41.23-35.62,50.46-50.26ZM665.49,323.56c-18.18,3.77-35.12,18.3-31.4,38.22.57,3.04,24.03,48.05,26.72,51.21,13.1,15.33,29.58,8.41,43.91-1.82,11.27-8.05,14.64-13.02,12.37-27.59-1.02-6.56-23.49-50.61-28.24-55.04-6.78-6.33-14.46-6.82-23.36-4.97ZM924.11,747.42v-314.32l-130.96,78.59-45.92,141.07c-.79,6,4.39,10.67,7.71,15.34,28.51,40.16,95.46,90.88,93.95,142.4l-16.29,131.41,21.66,7v-149.1c0-2.13,10.01-22.14,12.26-25.35,12.03-17.14,36.53-29.19,57.59-27.04ZM510.4,1072.45l12.04-2.71,135.02-181.98c15.43-62.96,25.13-127.41,35.59-191.39l-88.66,36.9c-6.82,54.32-3.47,110.51-12.01,164.64l-81.99,174.54ZM789.8,943.54c1.06-42.67,14.2-88.37,16.1-130.35,1.01-22.34-8.82-29.29-21.54-45.56-15.62-19.98-33.48-39.44-50.95-57.82,3.09,15.48-14.26,59.28-10.44,70.7,2.57,7.7,34.2,14.9,41.4,39.35l11.98,123.69h13.45ZM1114.85,1335.75v-525.2c0-12.99-19.79-21.6-30.89-22.84-34.47-3.86-124.05-3.86-158.52,0-21.55,2.42-29.13,12.36-31,33.48-8.31,94.07,6.32,200.39.25,295.76-2.78,20.92-33.73,23.76-39.25,6.73-4.94-34.83,2.69-74.34-1.5-108.65-2.1-17.2-10.18-27.02-27.77-28.65-53.7-4.96-114.9,4-169.44.07-7.11-1.91-22.77,12.53-22.77,17.52v331.78h220.29v-130.29c0-4.86,15.99-12.73,22.58-12.07,5.94.6,17.71,9.51,17.71,14.76v127.61h220.29ZM733.37,943.53l-10.08-109.47c-1.81-3.9-2.93-5.34-7.37-6.07-6.49-1.07-3.29,2.92-3.96,6.73-3.56,20.16-6.75,53.67-14.81,71.25-6.08,13.26-20.17,23.76-25.57,37.57h61.79ZM590.99,1335.75v-200.14c0-6.84-14.85-20.24-23.01-19.98-54.4,3.49-115.64-5.23-169.2-.3-12.63,1.16-28.08,12.37-28.08,25.65v194.77h220.29ZM330.4,1335.75v-73.88c0-13.27-15.45-24.49-28.08-25.65-53.56-4.93-114.8,3.79-169.2.3-8.15-.26-23.01,13.14-23.01,19.98v79.25h220.29Z"/>
  </g>
</svg>